<?xml version="1.0" encoding="UTF-8"?>
<svg id="Ebene_2" data-name="Ebene 2" xmlns="http://www.w3.org/2000/svg" viewBox="0 0 280.49 643.24">
  <g id="Ebene_2-2" data-name="Ebene 2">
    <path d="M165.47,81.24c.84,22.7-6.38,44.82-9.87,67.26-1.11,7.11-1.27,15.68,4.49,19.99,5.4,4.03,13.51,1.84,18.31-2.88,4.8-4.72,7.2-11.29,9.83-17.48,10.06-23.67,25.67-44.95,45.22-61.66-5.03,19.44-3.81,40.45,3.44,59.18,7.36,18.99,20.48,35.15,29.53,53.39,15.28,30.8,18.26,67.51,8.14,100.37s-33.23,61.53-63.2,78.4c-12.3,6.92-26.45,12.62-33.67,24.74-6.55,11-5.77,24.69-4.79,37.45,3.54,45.92,7.08,91.85,10.62,137.77,1.19,15.42,2.14,31.93-5.61,45.3-7.93,13.67-24.47,21.41-40.21,20-14.36-1.27-30.04-9.74-37.44-22.37-8.11-13.84-3.02-34.14-2.17-49.59,2.38-43.43,5.61-86.8,9.69-130.1,.98-10.44,1.97-21.31-1.7-31.14-7.01-18.77-27.89-27.44-44.79-38.21C12.02,340.27-11.93,274.07,5.85,218.41c12.68-39.69,42.79-70.84,68.14-103.9S121.48,40.97,113.9,0c.08,.04,.15,.08,.23,.12,29.74,15.48,50.09,47.61,51.33,81.12Zm-25.23,115.98c-21.69,.28-40.73,17.34-52.23,36.23-12,19.7-18.89,42.7-18.32,65.77,.57,23.06,8.82,46.09,24.05,63.42,9.72,11.06,22.42,20.24,27.81,33.95,3.88,9.89,3.4,20.89,2.8,31.5-2.82,49.93-8.81,99.63-11.75,149.51-.3,4.72-.46,9.73-.44,14.99,.06,14.41,4.39,28.67,19.88,33.24,10.45,3.09,22.6-.76,29.38-9.3,8.32-10.48,7.94-25.2,6.94-38.55-3.99-53.27-11.57-106.34-12.07-159.76-.05-5.59-.02-11.24,1.35-16.66,4.05-16.02,18.59-26.71,29.31-39.29,15.72-18.44,23.92-42.86,23.73-67.09s-8.55-48.15-22.5-67.96c-10.45-14.84-25.42-28.14-43.5-29.83-1.49-.14-2.97-.2-4.44-.18Z"/>
  </g>
</svg>